<svg width="160" height="65" viewBox="0 0 160 65" fill="none" xmlns="http://www.w3.org/2000/svg">
<path d="M14.5122 27.3769C46.9539 3.91014 92.5078 -0.316622 122.974 3.13991C136.735 4.70093 149.454 8.1777 154.197 15.6637C158.276 22.0978 155.454 32.0553 144.732 40.7575C131.22 51.7261 109.263 56.4844 91.9335 59.2623C75.2047 61.944 59.1545 62.709 44.9914 61.5958C31.0609 60.5011 17.6128 57.7831 9.6463 52.1675C1.18192 46.2007 0.215093 35.0297 15.7329 24.4776C31.0485 14.0645 53.3509 9.70417 70.8214 7.21702C90.6103 4.40053 109.297 3.60583 126.522 4.55308C128.439 4.65897 130.252 2.59657 128.338 2.49332C109.44 1.46182 88.8124 2.5185 66.9911 5.91264C50.1368 8.53324 29.4621 13.2849 14.6132 22.9233C1.11249 31.6862 -2.50577 41.8928 1.59588 48.8118C6.75462 57.5198 22.5941 61.4594 38.3611 63.2042C54.1078 64.948 72.3194 64.2597 91.4541 61.2023C109.138 58.3757 131.095 53.4513 145.561 42.6484C156.801 34.2542 160.987 24.5562 158.989 17.4494C156.47 8.48543 143.937 3.82935 129.792 1.71653C98.0477 -3.02596 47.4911 1.08237 12.4414 26.4671C10.7445 27.6958 12.7981 28.6174 14.5122 27.3769Z" fill="#FEA36F"/>
</svg>
